# xmcd
#
# Track frame offsets: 
#        150
#        31984
#        87245
#
# Disc length: 4617 seconds
#
# Revision: 1
# Processed by: cddbd v1.5.2PL0 Copyright (c) Steve Scherf et al.
# Submitted via: ExactAudioCopy v1.0b3
#
DISCID=19120703
DTITLE=Sri Ganapati Sachchidananda Swamiji - Live at the Lincoln Cente
DTITLE=r - CD1
DYEAR=2008
DGENRE=Healing
TTITLE0=Pranavaswarupam - Raga Rushyaketupriya
TTITLE1=Aghannashana - Raga Gaanamurti
TTITLE2=Datta Yoga Raga Sagara - Ragas Anagha, Vasanti, Kokilam, Nagan
TTITLE2=andini and Simhendra Madhyamam
EXTD=
EXTT0=
EXTT1=
EXTT2=
PLAYORDER=
